<?xml version="1.0" encoding="utf-8"?>
<!-- Generator: Adobe Illustrator 23.0.2, SVG Export Plug-In . SVG Version: 6.00 Build 0)  -->
<svg version="1.1" id="Layer_1" xmlns="http://www.w3.org/2000/svg" xmlns:xlink="http://www.w3.org/1999/xlink" x="0px" y="0px"
	 viewBox="0 0 116.4 33.4" style="enable-background:new 0 0 116.4 33.4;" xml:space="preserve">
<style type="text/css">
	.st0{fill:#111C4E;}
	.st1{fill:#78DED4;}
	.st2{fill:#FF7276;}
</style>
<title>logo-swap</title>
<g>
	<g id="Camada_1">
		<path class="st0" d="M50.8,17.1c-0.5-0.5-1-0.9-1.6-1.2c-0.8-0.4-1.6-0.8-2.4-1.1c-0.5-0.2-1-0.4-1.4-0.6c-0.3-0.2-0.7-0.3-1-0.6
			c-0.2-0.2-0.4-0.4-0.5-0.6c-0.1-0.2-0.1-0.5-0.1-0.8c0-0.5,0.3-1,0.8-1.3c0.6-0.3,1.3-0.4,2-0.4c0.8,0,1.6,0.1,2.4,0.2
			c0.6,0.1,1.1,0.3,1.7,0.6l0.7-3.2c-0.7-0.2-1.4-0.4-2.1-0.5c-0.9-0.2-1.9-0.3-2.9-0.3c-1.7-0.1-3.4,0.4-4.8,1.4
			c-1.2,0.9-1.8,2.3-1.7,3.7c0,0.7,0.1,1.4,0.4,2.1c0.2,0.5,0.6,1,1,1.4c0.4,0.4,1,0.8,1.5,1.1c0.6,0.3,1.3,0.6,2,0.8
			c0.9,0.3,1.8,0.7,2.6,1.2c0.5,0.3,0.8,0.9,0.8,1.4c0,0.5-0.2,1.1-0.7,1.3c-0.7,0.3-1.5,0.4-2.3,0.4c-1,0-1.9-0.1-2.9-0.3
			c-0.7-0.2-1.4-0.4-2.1-0.7l-0.7,3.3c0.6,0.2,1.3,0.4,1.9,0.6c1.2,0.3,2.4,0.4,3.7,0.4c1.8,0.1,3.7-0.3,5.2-1.3
			c1.2-0.8,2-2.2,1.9-3.7c0-0.7-0.1-1.3-0.3-2C51.5,18,51.2,17.5,50.8,17.1z"/>
		<path class="st0" d="M72.5,19.3c0,2-1,3.1-2.7,3.1s-2.6-1.2-2.6-3.1V7.7h-4v11.6c0,1.9-1,3.1-2.6,3.1s-2.7-1.1-2.7-3.1V7.7h-4.1
			v11.6c0,3.9,2.5,6.3,6.5,6.3c1.9,0,3.7-0.8,4.9-2.3c1.1,1.6,3,2.4,4.9,2.3c4,0,6.5-2.4,6.5-6.3V7.7h-4V19.3z"/>
		<polygon class="st0" points="102.3,25.5 102.3,25.5 102.3,25.5 		"/>
		<path class="st0" d="M106.4,7.4h-8.2v25h4V11.1h3.8c2.9,0,5,2.2,5,5.4s-2.1,5.5-5.1,5.5h-2.4l0.8,3.6h1.5c4.9,0.1,9-3.8,9.2-8.7
			c0-0.2,0-0.4,0-0.6C115,11.1,111.4,7.4,106.4,7.4z"/>
		<path class="st0" d="M91.4,20.2L91.4,20.2c-1.3,0.9-2.7,1.3-4.1,1.3h-0.1c-1.3,0-2.5-0.5-3.4-1.5c-0.7-1-1.1-2.3-1.1-3.5
			c0-3.2,2.1-5.5,5.1-5.5h2.4l-0.8-3.6h-1.5c-4.9-0.1-9,3.7-9.2,8.6c0,0.2,0,0.4,0,0.6c0,5.1,3.6,8.9,8.6,8.9c1.5,0,2.9-0.4,4.2-1.2
			v1h3.9V7.5h-4V20.2z"/>
		<circle class="st0" cx="16.7" cy="16.5" r="15.9"/>
		<path class="st1" d="M22,16.6L22,16.6l-0.5-0.1l0,0h-0.2h-9.4l-0.4-0.1l2,9.2h7.5c2.6,0.1,4.8-1.9,5-4.5l0,0
			C25.8,18.8,24.2,16.9,22,16.6z"/>
		<path class="st2" d="M20.9,16.5c0.4,0,0.7,0,1.1,0.1l-2-9.2h-7.5c-2.6-0.1-4.8,1.9-5,4.5l0,0c0.1,2.4,1.9,4.3,4.3,4.5H20.9z"/>
	</g>
</g>
</svg>
