<svg enable-background="new 0 0 116.4 33.4" viewBox="0 0 116.4 33.4" xmlns="http://www.w3.org/2000/svg"><g fill="#111c4e"><path d="m50.8 17.1c-.5-.5-1-.9-1.6-1.2-.8-.4-1.6-.8-2.4-1.1-.5-.2-1-.4-1.4-.6-.3-.2-.7-.3-1-.6-.2-.2-.4-.4-.5-.6s-.1-.5-.1-.8c0-.5.3-1 .8-1.3.6-.3 1.3-.4 2-.4.8 0 1.6.1 2.4.2.6.1 1.1.3 1.7.6l.7-3.2c-.7-.2-1.4-.4-2.1-.5-.9-.2-1.9-.3-2.9-.3-1.7-.1-3.4.4-4.8 1.4-1.2.9-1.8 2.3-1.7 3.7 0 .7.1 1.4.4 2.1.2.5.6 1 1 1.4s1 .8 1.5 1.1c.6.3 1.3.6 2 .8.9.3 1.8.7 2.6 1.2.5.3.8.9.8 1.4s-.2 1.1-.7 1.3c-.7.3-1.5.4-2.3.4-1 0-1.9-.1-2.9-.3-.7-.2-1.4-.4-2.1-.7l-.7 3.3c.6.2 1.3.4 1.9.6 1.2.3 2.4.4 3.7.4 1.8.1 3.7-.3 5.2-1.3 1.2-.8 2-2.2 1.9-3.7 0-.7-.1-1.3-.3-2-.4-.4-.7-.9-1.1-1.3z"/><path d="m72.5 19.3c0 2-1 3.1-2.7 3.1s-2.6-1.2-2.6-3.1v-11.6h-4v11.6c0 1.9-1 3.1-2.6 3.1s-2.7-1.1-2.7-3.1v-11.6h-4.1v11.6c0 3.9 2.5 6.3 6.5 6.3 1.9 0 3.7-.8 4.9-2.3 1.1 1.6 3 2.4 4.9 2.3 4 0 6.5-2.4 6.5-6.3v-11.6h-4v11.6z"/><path d="m106.4 7.4h-8.2v25h4v-21.3h3.8c2.9 0 5 2.2 5 5.4s-2.1 5.5-5.1 5.5h-2.4l.8 3.6h1.5c4.9.1 9-3.8 9.2-8.7 0-.2 0-.4 0-.6 0-5.2-3.6-8.9-8.6-8.9z"/><path d="m91.4 20.2c-1.3.9-2.7 1.3-4.1 1.3h-.1c-1.3 0-2.5-.5-3.4-1.5-.7-1-1.1-2.3-1.1-3.5 0-3.2 2.1-5.5 5.1-5.5h2.4l-.8-3.6h-1.5c-4.9-.1-9 3.7-9.2 8.6v.6c0 5.1 3.6 8.9 8.6 8.9 1.5 0 2.9-.4 4.2-1.2v1h3.9v-17.8h-4z"/><circle cx="16.7" cy="16.5" r="15.9"/></g><path d="m22 16.6-.5-.1h-.2-9.4l-.4-.1 2 9.2h7.5c2.6.1 4.8-1.9 5-4.5-.2-2.3-1.8-4.2-4-4.5z" fill="#78ded4"/><path d="m20.9 16.5c.4 0 .7 0 1.1.1l-2-9.2h-7.5c-2.6-.1-4.8 1.9-5 4.5.1 2.4 1.9 4.3 4.3 4.5h9.1z" fill="#ff7276"/></svg>